<?xml version="1.0" encoding="UTF-8"?>
<svg width="16px" height="16px" viewBox="0 0 120 120" version="1.1" xmlns="http://www.w3.org/2000/svg" xmlns:xlink="http://www.w3.org/1999/xlink">
    <title>logo</title>
    <g id="页面-1" stroke="none" stroke-width="1" fill="none" fill-rule="evenodd">
        <g id="logo">
            <rect id="矩形" x="0" y="0" width="120" height="120"></rect>
            <path d="M94,21 C92.7440633,30.5375854 84.4907652,37.7357631 74.8021108,37.7357631 L60.8073879,37.7357631 C57.3984169,37.7357631 54.348285,38.8154897 52.0158311,40.7949886 C52.0158311,33.0569476 52.3746702,27.6583144 55.2453826,24.9589977 C57.9366755,22.2596811 63.3192612,21.1799544 73.1873351,21.1799544 C73.0079156,21 94,21 94,21 Z" id="路径" fill="#00AE9A"></path>
            <path d="M74.8021108,83.2642369 C84.4907652,83.2642369 92.7440633,90.4624146 94,100 L44.121372,100 C34.0738786,99.8200456 26,91.7220957 26,81.6446469 L26,74.6264237 C27.6147757,76.4259681 29.5883905,77.8656036 31.9208443,78.9453303 C38.7387863,82.3644647 48.4274406,83.0842825 60.8073879,83.0842825 L74.8021108,83.2642369 L74.8021108,83.2642369 Z" id="路径" fill="#008588"></path>
            <path d="M49.1451187,77.1457859 C32.9973615,76.0660592 26,71.5671982 26,56.8109339 L26,39.3553531 C26,29.0979499 34.2532982,21 44.121372,21 L50.939314,21 C45.9155673,26.2186788 46.0949868,34.4965831 46.2744063,46.9134396 C46.2744063,49.7927107 46.2744063,52.4920273 46.2744063,55.9111617 L46.2744063,68.8678815 C46.4538259,71.9271071 47.3509235,74.8063781 49.1451187,77.1457859 Z" id="路径" fill="#00AE9A"></path>
            <path d="M94,51.2323462 C92.7440633,60.7699317 84.4907652,67.9681093 74.8021108,67.9681093 L60.8073879,67.9681093 C57.3984169,67.9681093 54.348285,69.047836 52.0158311,71.0273349 C52.0158311,63.2892938 52.3746702,57.8906606 55.2453826,55.191344 C57.9366755,52.4920273 63.3192612,51.4123007 73.1873351,51.4123007 L94,51.2323462 L94,51.2323462 L94,51.2323462 Z" id="路径" fill="#008588"></path>
        </g>
    </g>
</svg>